<svg version="1.1" xmlns="http://www.w3.org/2000/svg" xmlns:xlink="http://www.w3.org/1999/xlink" width="1634.1416015625" height="298"><defs/><g><g transform="translate(-6,-165) scale(1,1)"><path fill="#ffffff" stroke="#000000" d="M 1296 282 C 1296 276.477152 1310.3268864 272 1328 272 C 1345.6731136 272 1360 276.477152 1360 282 L 1360 342 C 1360 347.522848 1345.6731136 352 1328 352 C 1310.3268864 352 1296 347.522848 1296 342 L 1296 282 Z" stroke-miterlimit="10"/></g><g transform="translate(-6,-165) scale(1,1)"><path fill="none" stroke="#000000" d="M 1296 282 C 1296 287.522848 1310.3268864 292 1328 292 C 1345.6731136 292 1360 287.522848 1360 282" stroke-miterlimit="10"/></g><g transform="translate(-6,-165) scale(1,1)"><g><path fill="none" stroke="none"/><text fill="#000000" stroke="none" font-family="Arial" font-size="13px" font-style="normal" font-weight="normal" text-decoration="none" x="1320.049560546875" y="323.5">S3</text></g></g><g transform="translate(-6,-165) scale(1,1)"><path fill="#ffffff" stroke="none" d="M 864 312 C 864 303.1634432 871.1634432 296 880 296 C 888.8365568 296 896 303.1634432 896 312 C 896 320.8365568 888.8365568 328 880 328 C 871.1634432 328 864 320.8365568 864 312 Z"/></g><g transform="translate(-6,-165) scale(1,1)"><path fill="none" stroke="#000000" d="M 864 312 C 864 303.1634432 871.1634432 296 880 296 C 888.8365568 296 896 303.1634432 896 312 C 896 320.8365568 888.8365568 328 880 328 C 871.1634432 328 864 320.8365568 864 312 Z" stroke-miterlimit="10"/></g><g transform="translate(-6,-165) scale(1,1)"><g><path fill="none" stroke="none"/><text fill="#000000" stroke="none" font-family="Arial" font-size="13px" font-style="normal" font-weight="normal" text-decoration="none" x="867.714111328125" y="318.5">ALB</text></g></g><g transform="translate(-6,-165) scale(1,1)"><path fill="#ffffff" stroke="none" d="M 992 310.5 L 1008 296 L 1024 310.5 L 1008 325 L 992 310.5"/></g><g transform="translate(-6,-165) scale(1,1)"><path fill="none" stroke="#000000" d="M 992 310.5 L 1008 296 L 1024 310.5 L 1008 325 L 992 310.5 L 992 310.5" stroke-miterlimit="10"/></g><g transform="translate(-6,-165) scale(1,1)"><g><path fill="none" stroke="none"/></g></g><g transform="translate(-6,-165) scale(1,1)"><rect fill="#ffffff" stroke="none" x="1056" y="232" width="64" height="45"/></g><g transform="translate(-6,-165) scale(1,1)"><path fill="none" stroke="#000000" d="M 1056 232 L 1120 232 L 1120 277 L 1056 277 L 1056 232 Z Z" stroke-miterlimit="10"/></g><g transform="translate(-6,-165) scale(1,1)"><path fill="none" stroke="#000000" d="M 1061 232 L 1061 277" stroke-miterlimit="10"/></g><g transform="translate(-6,-165) scale(1,1)"><path fill="none" stroke="#000000" d="M 1115 232 L 1115 277" stroke-miterlimit="10"/></g><g transform="translate(-6,-165) scale(1,1)"><g><path fill="none" stroke="none"/><text fill="#000000" stroke="none" font-family="Arial" font-size="13px" font-style="normal" font-weight="normal" text-decoration="none" x="1069.67333984375" y="254.5">Worker</text><text fill="#000000" stroke="none" font-family="Arial" font-size="13px" font-style="normal" font-weight="normal" text-decoration="none" x="1083.27001953125" y="267.5">01</text></g></g><g transform="translate(-6,-165) scale(1,1)"><rect fill="#ffffff" stroke="none" x="1056" y="344" width="64" height="45"/></g><g transform="translate(-6,-165) scale(1,1)"><path fill="none" stroke="#000000" d="M 1056 344 L 1120 344 L 1120 389 L 1056 389 L 1056 344 Z Z" stroke-miterlimit="10"/></g><g transform="translate(-6,-165) scale(1,1)"><path fill="none" stroke="#000000" d="M 1061 344 L 1061 389" stroke-miterlimit="10"/></g><g transform="translate(-6,-165) scale(1,1)"><path fill="none" stroke="#000000" d="M 1115 344 L 1115 389" stroke-miterlimit="10"/></g><g transform="translate(-6,-165) scale(1,1)"><g><path fill="none" stroke="none"/><text fill="#000000" stroke="none" font-family="Arial" font-size="13px" font-style="normal" font-weight="normal" text-decoration="none" x="1069.67333984375" y="366.5">Worker</text><text fill="#000000" stroke="none" font-family="Arial" font-size="13px" font-style="normal" font-weight="normal" text-decoration="none" x="1083.27001953125" y="379.5">02</text></g></g><g transform="translate(-6,-165) scale(1,1)"><path fill="none" stroke="#000000" d="M 1008 296 L 1008 262 M 1008 262 A 8 8 0 0 1 1016 254 L 1056 254" stroke-miterlimit="10"/></g><g transform="translate(-6,-165) scale(1,1)"><path fill="#000000" stroke="none" d="M 1045.837325142376 258.209517756016 L 1056 254 L 1045.837325142376 249.790482243984"/></g><g transform="translate(-6,-165) scale(1,1)"><path fill="none" stroke="#000000" d="M 1045.837325142376 258.209517756016 L 1056 254 L 1045.837325142376 249.790482243984 L 1045.837325142376 258.209517756016" stroke-miterlimit="10"/></g><g transform="translate(-6,-165) scale(1,1)"><path fill="none" stroke="#000000" d="M 1008 325 L 1008 374 M 1008 374 A 8 8 0 0 0 1016 382 L 1056 382" stroke-miterlimit="10"/></g><g transform="translate(-6,-165) scale(1,1)"><path fill="#000000" stroke="none" d="M 1045.837325142376 386.209517756016 L 1056 382 L 1045.837325142376 377.790482243984"/></g><g transform="translate(-6,-165) scale(1,1)"><path fill="none" stroke="#000000" d="M 1045.837325142376 386.209517756016 L 1056 382 L 1045.837325142376 377.790482243984 L 1045.837325142376 386.209517756016" stroke-miterlimit="10"/></g><g transform="translate(-6,-165) scale(1,1)"><path fill="none" stroke="#000000" d="M 896 310 L 992 310" stroke-miterlimit="10"/></g><g transform="translate(-6,-165) scale(1,1)"><path fill="#000000" stroke="none" d="M 981.8373251423759 314.209517756016 L 992 310 L 981.8373251423758 305.790482243984"/></g><g transform="translate(-6,-165) scale(1,1)"><path fill="none" stroke="#000000" d="M 981.8373251423759 314.209517756016 L 992 310 L 981.8373251423758 305.790482243984 L 981.8373251423759 314.209517756016" stroke-miterlimit="10"/></g><g transform="translate(-6,-165) scale(1,1)"><g><path fill="none" stroke="none"/><text fill="#000000" stroke="none" font-family="Arial" font-size="13px" font-style="normal" font-weight="normal" text-decoration="none" x="911.5" y="301.5">7: forwards</text></g></g><g transform="translate(-6,-165) scale(1,1)"><path fill="none" stroke="#000000" d="M 1088 277 L 1088 312 M 1088 312 A 8 8 0 0 0 1096 320 L 1296 320" stroke-miterlimit="10"/></g><g transform="translate(-6,-165) scale(1,1)"><path fill="#000000" stroke="none" d="M 1285.837325142376 324.209517756016 L 1296 320 L 1285.837325142376 315.790482243984"/></g><g transform="translate(-6,-165) scale(1,1)"><path fill="none" stroke="#000000" d="M 1285.837325142376 324.209517756016 L 1296 320 L 1285.837325142376 315.790482243984 L 1285.837325142376 324.209517756016" stroke-miterlimit="10"/></g><g transform="translate(-6,-165) scale(1,1)"><path fill="none" stroke="#000000" d="M 1088 344 L 1088 328 M 1088 328 A 8 8 0 0 1 1096 320 L 1296 320" stroke-miterlimit="10"/></g><g transform="translate(-6,-165) scale(1,1)"><path fill="#000000" stroke="none" d="M 1285.837325142376 324.209517756016 L 1296 320 L 1285.837325142376 315.790482243984"/></g><g transform="translate(-6,-165) scale(1,1)"><path fill="none" stroke="#000000" d="M 1285.837325142376 324.209517756016 L 1296 320 L 1285.837325142376 315.790482243984 L 1285.837325142376 324.209517756016" stroke-miterlimit="10"/></g><g transform="translate(-6,-165) scale(1,1)"><g><path fill="none" stroke="none"/><text fill="#000000" stroke="none" font-family="Arial" font-size="13px" font-style="normal" font-weight="normal" text-decoration="none" x="1143.5" y="316.5">8: Asks for CV file</text></g></g><g transform="translate(-6,-165) scale(1,1)"><path fill="#ffffff" stroke="#000000" d="M 1448 288 L 1503.83544921875 288 L 1503.83544921875 352 C 1485.83544921875 332 1466 367 1448 342 L 1448 288 Z" stroke-miterlimit="10"/></g><g transform="translate(-6,-165) scale(1,1)"><g><path fill="none" stroke="none"/><text fill="#000000" stroke="none" font-family="Arial" font-size="13px" font-style="normal" font-weight="normal" text-decoration="none" x="1458.69970703125" y="321.5">YAML</text></g></g><g transform="translate(-6,-165) scale(1,1)"><path fill="none" stroke="#000000" d="M 1360 312 L 1448 312" stroke-miterlimit="10"/></g><g transform="translate(-6,-165) scale(1,1)"><path fill="#000000" stroke="none" d="M 1437.837325142376 316.209517756016 L 1448 312 L 1437.837325142376 307.790482243984"/></g><g transform="translate(-6,-165) scale(1,1)"><path fill="none" stroke="#000000" d="M 1437.837325142376 316.209517756016 L 1448 312 L 1437.837325142376 307.790482243984 L 1437.837325142376 316.209517756016" stroke-miterlimit="10"/></g><g transform="translate(-6,-165) scale(1,1)"><g><path fill="none" stroke="none"/><text fill="#000000" stroke="none" font-family="Arial" font-size="13px" font-style="normal" font-weight="normal" text-decoration="none" x="1369.986328125" y="307.5">9: retrieves</text></g></g><g transform="translate(-6,-165) scale(1,1)"><path fill="none" stroke="#000000" d="M 1504 320 L 1584 320 M 1584 320 A 8 8 0 0 1 1592 328 L 1592 352 M 1592 352 A 8 8 0 0 1 1584 360 L 1120 360" stroke-miterlimit="10"/></g><g transform="translate(-6,-165) scale(1,1)"><path fill="#000000" stroke="none" d="M 1130.162674857624 355.790482243984 L 1120 360 L 1130.162674857624 364.209517756016"/></g><g transform="translate(-6,-165) scale(1,1)"><path fill="none" stroke="#000000" d="M 1130.162674857624 355.790482243984 L 1120 360 L 1130.162674857624 364.209517756016 L 1130.162674857624 355.790482243984" stroke-miterlimit="10"/></g><g transform="translate(-6,-165) scale(1,1)"><path fill="none" stroke="#000000" d="M 1504 320 L 1584 320 M 1584 320 A 8 8 0 0 0 1592 312 L 1592 272 M 1592 272 A 8 8 0 0 0 1584 264 L 1120 264" stroke-miterlimit="10"/></g><g transform="translate(-6,-165) scale(1,1)"><path fill="#000000" stroke="none" d="M 1130.162674857624 259.790482243984 L 1120 264 L 1130.162674857624 268.209517756016"/></g><g transform="translate(-6,-165) scale(1,1)"><path fill="none" stroke="#000000" d="M 1130.162674857624 259.790482243984 L 1120 264 L 1130.162674857624 268.209517756016 L 1130.162674857624 259.790482243984" stroke-miterlimit="10"/></g><g transform="translate(-6,-165) scale(1,1)"><g><path fill="none" stroke="none"/><text fill="#000000" stroke="none" font-family="Arial" font-size="13px" font-style="normal" font-weight="normal" text-decoration="none" x="1504.18359375" y="316.5">10: HTTP Response</text></g></g><g transform="translate(-6,-165) scale(1,1)"><path fill="#ffffff" stroke="none" d="M 424 310.5 C 424 302.4918704 430.4918704 296 438.5 296 C 446.5081296 296 453 302.4918704 453 310.5 C 453 318.5081296 446.5081296 325 438.5 325 C 430.4918704 325 424 318.5081296 424 310.5 Z"/></g><g transform="translate(-6,-165) scale(1,1)"><path fill="none" stroke="#000000" d="M 424 310.5 C 424 302.4918704 430.4918704 296 438.5 296 C 446.5081296 296 453 302.4918704 453 310.5 C 453 318.5081296 446.5081296 325 438.5 325 C 430.4918704 325 424 318.5081296 424 310.5 Z" stroke-miterlimit="10"/></g><g transform="translate(-6,-165) scale(1,1)"><g><path fill="none" stroke="none"/><text fill="#000000" stroke="none" font-family="Arial" font-size="13px" font-style="normal" font-weight="normal" text-decoration="none" x="426.214111328125" y="317">ALB</text></g></g><g transform="translate(-6,-165) scale(1,1)"><path fill="#ffffff" stroke="none" d="M 552 310.5 L 568 296 L 584 310.5 L 568 325 L 552 310.5"/></g><g transform="translate(-6,-165) scale(1,1)"><path fill="none" stroke="#000000" d="M 552 310.5 L 568 296 L 584 310.5 L 568 325 L 552 310.5 L 552 310.5" stroke-miterlimit="10"/></g><g transform="translate(-6,-165) scale(1,1)"><g><path fill="none" stroke="none"/></g></g><g transform="translate(-6,-165) scale(1,1)"><rect fill="#ffffff" stroke="none" x="632" y="232" width="60.6533203125" height="45"/></g><g transform="translate(-6,-165) scale(1,1)"><path fill="none" stroke="#000000" d="M 632 232 L 692.6533203125 232 L 692.6533203125 277 L 632 277 L 632 232 Z Z" stroke-miterlimit="10"/></g><g transform="translate(-6,-165) scale(1,1)"><path fill="none" stroke="#000000" d="M 637 232 L 637 277" stroke-miterlimit="10"/></g><g transform="translate(-6,-165) scale(1,1)"><path fill="none" stroke="#000000" d="M 687.6533203125 232 L 687.6533203125 277" stroke-miterlimit="10"/></g><g transform="translate(-6,-165) scale(1,1)"><g><path fill="none" stroke="none"/><text fill="#000000" stroke="none" font-family="Arial" font-size="13px" font-style="normal" font-weight="normal" text-decoration="none" x="644" y="254.5">Worker</text><text fill="#000000" stroke="none" font-family="Arial" font-size="13px" font-style="normal" font-weight="normal" text-decoration="none" x="657.5966796875" y="267.5">01</text></g></g><g transform="translate(-6,-165) scale(1,1)"><rect fill="#ffffff" stroke="none" x="632" y="344" width="60.6533203125" height="45"/></g><g transform="translate(-6,-165) scale(1,1)"><path fill="none" stroke="#000000" d="M 632 344 L 692.6533203125 344 L 692.6533203125 389 L 632 389 L 632 344 Z Z" stroke-miterlimit="10"/></g><g transform="translate(-6,-165) scale(1,1)"><path fill="none" stroke="#000000" d="M 637 344 L 637 389" stroke-miterlimit="10"/></g><g transform="translate(-6,-165) scale(1,1)"><path fill="none" stroke="#000000" d="M 687.6533203125 344 L 687.6533203125 389" stroke-miterlimit="10"/></g><g transform="translate(-6,-165) scale(1,1)"><g><path fill="none" stroke="none"/><text fill="#000000" stroke="none" font-family="Arial" font-size="13px" font-style="normal" font-weight="normal" text-decoration="none" x="644" y="366.5">Worker</text><text fill="#000000" stroke="none" font-family="Arial" font-size="13px" font-style="normal" font-weight="normal" text-decoration="none" x="657.5966796875" y="379.5">02</text></g></g><g transform="translate(-6,-165) scale(1,1)"><path fill="#ffffff" stroke="none" d="M 104 438.5 C 104 430.4918704 110.4918704 424 118.5 424 C 126.5081296 424 133 430.4918704 133 438.5 C 133 446.5081296 126.5081296 453 118.5 453 C 110.4918704 453 104 446.5081296 104 438.5 Z"/></g><g transform="translate(-6,-165) scale(1,1)"><path fill="none" stroke="#000000" d="M 104 438.5 C 104 430.4918704 110.4918704 424 118.5 424 C 126.5081296 424 133 430.4918704 133 438.5 C 133 446.5081296 126.5081296 453 118.5 453 C 110.4918704 453 104 446.5081296 104 438.5 Z" stroke-miterlimit="10"/></g><g transform="translate(-6,-165) scale(1,1)"><g><path fill="none" stroke="none"/><text fill="#000000" stroke="none" font-family="Arial" font-size="13px" font-style="normal" font-weight="normal" text-decoration="none" x="104.7763671875" y="445">DNS</text></g></g><g transform="translate(-6,-165) scale(1,1)"><rect fill="#ffffff" stroke="none" x="208" y="288" width="105.18994140625" height="40"/></g><g transform="translate(-6,-165) scale(1,1)"><path fill="none" stroke="#000000" d="M 208 288 L 313.18994140625 288 L 313.18994140625 328 L 208 328 L 208 288 Z Z" stroke-miterlimit="10"/></g><g transform="translate(-6,-165) scale(1,1)"><g><path fill="none" stroke="none"/><text fill="#000000" stroke="none" font-family="Arial" font-size="13px" font-style="normal" font-weight="normal" text-decoration="none" x="221.702880859375" y="310.5">Web Browser</text></g></g><g transform="translate(-6,-165) scale(1,1)"><path fill="none" stroke="#000000" d="M 208 320 L 128 320 M 128 320 A 8 8 0 0 0 120 328 L 120 424" stroke-miterlimit="10"/></g><g transform="translate(-6,-165) scale(1,1)"><path fill="#000000" stroke="none" d="M 115.79048224398402 413.83732514237585 L 120 424 L 124.20951775601598 413.83732514237585"/></g><g transform="translate(-6,-165) scale(1,1)"><path fill="none" stroke="#000000" d="M 115.79048224398402 413.83732514237585 L 120 424 L 124.20951775601598 413.83732514237585 L 115.79048224398402 413.83732514237585" stroke-miterlimit="10"/></g><g transform="translate(-6,-165) scale(1,1)"><g><path fill="none" stroke="none"/><text fill="#000000" stroke="none" font-family="Arial" font-size="13px" font-style="normal" font-weight="normal" text-decoration="none" x="78.5" y="386.5">2: who is ulises.zatara.in?</text></g></g><g transform="translate(-6,-165) scale(1,1)"><path fill="none" stroke="#000000" d="M 313 310 L 424 310" stroke-miterlimit="10"/></g><g transform="translate(-6,-165) scale(1,1)"><path fill="#000000" stroke="none" d="M 413.83732514237585 314.209517756016 L 424 310 L 413.83732514237585 305.790482243984"/></g><g transform="translate(-6,-165) scale(1,1)"><path fill="none" stroke="#000000" d="M 413.83732514237585 314.209517756016 L 424 310 L 413.83732514237585 305.790482243984 L 413.83732514237585 314.209517756016" stroke-miterlimit="10"/></g><g transform="translate(-6,-165) scale(1,1)"><g><path fill="none" stroke="none"/><text fill="#000000" stroke="none" font-family="Arial" font-size="13px" font-style="normal" font-weight="normal" text-decoration="none" x="317.5" y="301.5">4: HTTP Request</text></g></g><g transform="translate(-6,-165) scale(1,1)"><path fill="none" stroke="#000000" d="M 453 312 L 552 312" stroke-miterlimit="10"/></g><g transform="translate(-6,-165) scale(1,1)"><path fill="#000000" stroke="none" d="M 541.8373251423759 316.209517756016 L 552 312 L 541.8373251423758 307.790482243984"/></g><g transform="translate(-6,-165) scale(1,1)"><path fill="none" stroke="#000000" d="M 541.8373251423759 316.209517756016 L 552 312 L 541.8373251423758 307.790482243984 L 541.8373251423759 316.209517756016" stroke-miterlimit="10"/></g><g transform="translate(-6,-165) scale(1,1)"><g><path fill="none" stroke="none"/><text fill="#000000" stroke="none" font-family="Arial" font-size="13px" font-style="normal" font-weight="normal" text-decoration="none" x="469.5" y="303.5">5: forwards</text></g></g><g transform="translate(-6,-165) scale(1,1)"><path fill="none" stroke="#000000" d="M 568 296 L 568 264 M 568 264 A 8 8 0 0 1 576 256 L 632 256" stroke-miterlimit="10"/></g><g transform="translate(-6,-165) scale(1,1)"><path fill="#000000" stroke="none" d="M 621.8373251423759 260.209517756016 L 632 256 L 621.8373251423758 251.790482243984"/></g><g transform="translate(-6,-165) scale(1,1)"><path fill="none" stroke="#000000" d="M 621.8373251423759 260.209517756016 L 632 256 L 621.8373251423758 251.790482243984 L 621.8373251423759 260.209517756016" stroke-miterlimit="10"/></g><g transform="translate(-6,-165) scale(1,1)"><path fill="none" stroke="#000000" d="M 568 325 L 568 357 M 568 357 A 8 8 0 0 0 576 365 L 632 365" stroke-miterlimit="10"/></g><g transform="translate(-6,-165) scale(1,1)"><path fill="#000000" stroke="none" d="M 621.8373251423759 369.209517756016 L 632 365 L 621.8373251423758 360.790482243984"/></g><g transform="translate(-6,-165) scale(1,1)"><path fill="none" stroke="#000000" d="M 621.8373251423759 369.209517756016 L 632 365 L 621.8373251423758 360.790482243984 L 621.8373251423759 369.209517756016" stroke-miterlimit="10"/></g><g transform="translate(-6,-165) scale(1,1)"><path fill="none" stroke="#000000" d="M 693 256 L 768 256 M 768 256 A 8 8 0 0 1 776 264 L 776 304 M 776 304 A 8 8 0 0 0 784 312 L 864 312" stroke-miterlimit="10"/></g><g transform="translate(-6,-165) scale(1,1)"><path fill="#000000" stroke="none" d="M 853.8373251423759 316.209517756016 L 864 312 L 853.8373251423758 307.790482243984"/></g><g transform="translate(-6,-165) scale(1,1)"><path fill="none" stroke="#000000" d="M 853.8373251423759 316.209517756016 L 864 312 L 853.8373251423758 307.790482243984 L 853.8373251423759 316.209517756016" stroke-miterlimit="10"/></g><g transform="translate(-6,-165) scale(1,1)"><path fill="none" stroke="#000000" d="M 693 376 L 768 376 M 768 376 A 8 8 0 0 0 776 368 L 776 320 M 776 320 A 8 8 0 0 1 784 312 L 864 312" stroke-miterlimit="10"/></g><g transform="translate(-6,-165) scale(1,1)"><path fill="#000000" stroke="none" d="M 853.8373251423759 316.209517756016 L 864 312 L 853.8373251423758 307.790482243984"/></g><g transform="translate(-6,-165) scale(1,1)"><path fill="none" stroke="#000000" d="M 853.8373251423759 316.209517756016 L 864 312 L 853.8373251423758 307.790482243984 L 853.8373251423759 316.209517756016" stroke-miterlimit="10"/></g><g transform="translate(-6,-165) scale(1,1)"><g><path fill="none" stroke="none"/><text fill="#000000" stroke="none" font-family="Arial" font-size="13px" font-style="normal" font-weight="normal" text-decoration="none" x="669.5" y="316.5">6: HTTP Request</text></g></g><g transform="translate(-6,-165) scale(1,1)"><path fill="#ffffff" stroke="none" d="M 26 288 L 77.533203125 288 Q 87.533203125 288 87.533203125 298 L 87.533203125 310 Q 87.533203125 320 77.533203125 320 L 26 320 Q 16 320 16 310 L 16 298 Q 16 288 26 288 Z"/></g><g transform="translate(-6,-165) scale(1,1)"><path fill="none" stroke="#000000" d="M 26 288 L 77.533203125 288 Q 87.533203125 288 87.533203125 298 L 87.533203125 310 Q 87.533203125 320 77.533203125 320 L 26 320 Q 16 320 16 310 L 16 298 Q 16 288 26 288 Z" stroke-miterlimit="10"/></g><g transform="translate(-6,-165) scale(1,1)"><g><path fill="none" stroke="none"/><text fill="#000000" stroke="none" font-family="Arial" font-size="13px" font-style="normal" font-weight="normal" text-decoration="none" x="25.5" y="310.5">👤Guest</text></g></g><g transform="translate(-6,-165) scale(1,1)"><path fill="none" stroke="#000000" d="M 88 309 L 208 309" stroke-miterlimit="10"/></g><g transform="translate(-6,-165) scale(1,1)"><path fill="#000000" stroke="none" d="M 197.83732514237585 313.209517756016 L 208 309 L 197.83732514237585 304.790482243984"/></g><g transform="translate(-6,-165) scale(1,1)"><path fill="none" stroke="#000000" d="M 197.83732514237585 313.209517756016 L 208 309 L 197.83732514237585 304.790482243984 L 197.83732514237585 313.209517756016" stroke-miterlimit="10"/></g><g transform="translate(-6,-165) scale(1,1)"><g><path fill="none" stroke="none"/><text fill="#000000" stroke="none" font-family="Arial" font-size="13px" font-style="normal" font-weight="normal" text-decoration="none" x="97.5" y="300.5">1: ulises.zatara.in</text></g></g><g transform="translate(-6,-165) scale(1,1)"><path fill="none" stroke="#000000" d="M 133 438 L 232 438 M 232 438 A 8 8 0 0 0 240 430 L 240 328" stroke-miterlimit="10"/></g><g transform="translate(-6,-165) scale(1,1)"><path fill="#000000" stroke="none" d="M 244.209517756016 338.16267485762415 L 240 328 L 235.790482243984 338.16267485762415"/></g><g transform="translate(-6,-165) scale(1,1)"><path fill="none" stroke="#000000" d="M 244.209517756016 338.16267485762415 L 240 328 L 235.790482243984 338.16267485762415 L 244.209517756016 338.16267485762415" stroke-miterlimit="10"/></g><g transform="translate(-6,-165) scale(1,1)"><g><path fill="none" stroke="none"/><text fill="#000000" stroke="none" font-family="Arial" font-size="13px" font-style="normal" font-weight="normal" text-decoration="none" x="149.5" y="436.5">3: IP Address</text></g></g><g transform="translate(-6,-165) scale(1,1)"><path fill="none" stroke="#000000" d="M 1088 232 L 1088 200 M 1088 200 A 8 8 0 0 0 1080 192 L 680 192 M 680 192 A 8 8 0 0 0 672 200 L 672 232" stroke-miterlimit="10"/></g><g transform="translate(-6,-165) scale(1,1)"><path fill="#000000" stroke="none" d="M 667.790482243984 221.83732514237585 L 672 232 L 676.209517756016 221.83732514237585"/></g><g transform="translate(-6,-165) scale(1,1)"><path fill="none" stroke="#000000" d="M 667.790482243984 221.83732514237585 L 672 232 L 676.209517756016 221.83732514237585 L 667.790482243984 221.83732514237585" stroke-miterlimit="10"/></g><g transform="translate(-6,-165) scale(1,1)"><g><path fill="none" stroke="none"/><text fill="#000000" stroke="none" font-family="Arial" font-size="13px" font-style="normal" font-weight="normal" text-decoration="none" x="812.5" y="187.5">12: HTTP Response</text></g></g><g transform="translate(-6,-165) scale(1,1)"><path fill="none" stroke="#000000" d="M 1072 389 L 1072 424 M 1072 424 A 8 8 0 0 1 1064 432 L 680 432 M 680 432 A 8 8 0 0 1 672 424 L 672 389" stroke-miterlimit="10"/></g><g transform="translate(-6,-165) scale(1,1)"><path fill="#000000" stroke="none" d="M 676.209517756016 399.16267485762415 L 672 389 L 667.790482243984 399.16267485762415"/></g><g transform="translate(-6,-165) scale(1,1)"><path fill="none" stroke="#000000" d="M 676.209517756016 399.16267485762415 L 672 389 L 667.790482243984 399.16267485762415 L 676.209517756016 399.16267485762415" stroke-miterlimit="10"/></g><g transform="translate(-6,-165) scale(1,1)"><g><path fill="none" stroke="none"/><text fill="#000000" stroke="none" font-family="Arial" font-size="13px" font-style="normal" font-weight="normal" text-decoration="none" x="812.5" y="452.5">12: HTTP Response</text></g></g><g transform="translate(-6,-165) scale(1,1)"><path fill="none" stroke="#000000" d="M 632 248 L 296 248 M 296 248 A 8 8 0 0 0 288 256 L 288 288" stroke-miterlimit="10"/></g><g transform="translate(-6,-165) scale(1,1)"><path fill="#000000" stroke="none" d="M 283.790482243984 277.83732514237585 L 288 288 L 292.209517756016 277.83732514237585"/></g><g transform="translate(-6,-165) scale(1,1)"><path fill="none" stroke="#000000" d="M 283.790482243984 277.83732514237585 L 288 288 L 292.209517756016 277.83732514237585 L 283.790482243984 277.83732514237585" stroke-miterlimit="10"/></g><g transform="translate(-6,-165) scale(1,1)"><g><path fill="none" stroke="none"/><text fill="#000000" stroke="none" font-family="Arial" font-size="13px" font-style="normal" font-weight="normal" text-decoration="none" x="375.5" y="244.5">14: HTTP Response</text></g></g><g transform="translate(-6,-165) scale(1,1)"><path fill="none" stroke="#000000" d="M 632 376 L 296 376 M 296 376 A 8 8 0 0 1 288 368 L 288 328" stroke-miterlimit="10"/></g><g transform="translate(-6,-165) scale(1,1)"><path fill="#000000" stroke="none" d="M 292.209517756016 338.16267485762415 L 288 328 L 283.790482243984 338.16267485762415"/></g><g transform="translate(-6,-165) scale(1,1)"><path fill="none" stroke="#000000" d="M 292.209517756016 338.16267485762415 L 288 328 L 283.790482243984 338.16267485762415 L 292.209517756016 338.16267485762415" stroke-miterlimit="10"/></g><g transform="translate(-6,-165) scale(1,1)"><g><path fill="none" stroke="none"/><text fill="#000000" stroke="none" font-family="Arial" font-size="13px" font-style="normal" font-weight="normal" text-decoration="none" x="367.5" y="395.5">14: HTTP Response</text></g></g><g transform="translate(-6,-165) scale(1,1)"><path fill="none" stroke="#000000" d="M 1104 232 L 1104 216 L 1136 216 L 1136 240 L 1120 240" stroke-miterlimit="10"/></g><g transform="translate(-6,-165) scale(1,1)"><path fill="#000000" stroke="none" d="M 1130.162674857624 235.790482243984 L 1120 240 L 1130.162674857624 244.209517756016"/></g><g transform="translate(-6,-165) scale(1,1)"><path fill="none" stroke="#000000" d="M 1130.162674857624 235.790482243984 L 1120 240 L 1130.162674857624 244.209517756016 L 1130.162674857624 235.790482243984" stroke-miterlimit="10"/></g><g transform="translate(-6,-165) scale(1,1)"><g><path fill="none" stroke="none"/><text fill="#000000" stroke="none" font-family="Arial" font-size="13px" font-style="normal" font-weight="normal" text-decoration="none" x="1093.5" y="212.5">11: Process Response</text></g></g><g transform="translate(-6,-165) scale(1,1)"><path fill="none" stroke="#000000" d="M 1104 389 L 1104 400 L 1136 400 L 1136 376 L 1120 376" stroke-miterlimit="10"/></g><g transform="translate(-6,-165) scale(1,1)"><path fill="#000000" stroke="none" d="M 1130.162674857624 371.790482243984 L 1120 376 L 1130.162674857624 380.209517756016"/></g><g transform="translate(-6,-165) scale(1,1)"><path fill="none" stroke="#000000" d="M 1130.162674857624 371.790482243984 L 1120 376 L 1130.162674857624 380.209517756016 L 1130.162674857624 371.790482243984" stroke-miterlimit="10"/></g><g transform="translate(-6,-165) scale(1,1)"><g><path fill="none" stroke="none"/><text fill="#000000" stroke="none" font-family="Arial" font-size="13px" font-style="normal" font-weight="normal" text-decoration="none" x="1093.5" y="418.5">11: Process Response</text></g></g><g transform="translate(-6,-165) scale(1,1)"><path fill="none" stroke="#000000" d="M 640 389 L 640 408 L 616 408 L 616 384 L 632 384" stroke-miterlimit="10"/></g><g transform="translate(-6,-165) scale(1,1)"><path fill="#000000" stroke="none" d="M 621.8373251423759 388.209517756016 L 632 384 L 621.8373251423758 379.790482243984"/></g><g transform="translate(-6,-165) scale(1,1)"><path fill="none" stroke="#000000" d="M 621.8373251423759 388.209517756016 L 632 384 L 621.8373251423758 379.790482243984 L 621.8373251423759 388.209517756016" stroke-miterlimit="10"/></g><g transform="translate(-6,-165) scale(1,1)"><g><path fill="none" stroke="none"/><text fill="#000000" stroke="none" font-family="Arial" font-size="13px" font-style="normal" font-weight="normal" text-decoration="none" x="530.5" y="425.5">13: Generate HTML</text></g></g><g transform="translate(-6,-165) scale(1,1)"><path fill="none" stroke="#000000" d="M 640 232 L 640 216 L 616 216 L 616 240 L 632 240" stroke-miterlimit="10"/></g><g transform="translate(-6,-165) scale(1,1)"><path fill="#000000" stroke="none" d="M 621.8373251423759 244.209517756016 L 632 240 L 621.8373251423758 235.790482243984"/></g><g transform="translate(-6,-165) scale(1,1)"><path fill="none" stroke="#000000" d="M 621.8373251423759 244.209517756016 L 632 240 L 621.8373251423758 235.790482243984 L 621.8373251423759 244.209517756016" stroke-miterlimit="10"/></g><g transform="translate(-6,-165) scale(1,1)"><g><path fill="none" stroke="none"/><text fill="#000000" stroke="none" font-family="Arial" font-size="13px" font-style="normal" font-weight="normal" text-decoration="none" x="540.5" y="211.5">13: Generate HTML</text></g></g><g transform="translate(-6,-165) scale(1,1)"><path fill="#ffffff" stroke="#000000" d="M 112 198.5 L 123 176 L 169.8544921875 176 Q 180.8544921875 176 180.8544921875 198.5 Q 180.8544921875 221 169.8544921875 221 L 123 221 L 112 198.5 Z" stroke-miterlimit="10"/></g><g transform="translate(-6,-165) scale(1,1)"><g><path fill="none" stroke="none"/><text fill="#000000" stroke="none" font-family="Arial" font-size="13px" font-style="normal" font-weight="normal" text-decoration="none" x="133.1796875" y="198.5">Web</text><text fill="#000000" stroke="none" font-family="Arial" font-size="13px" font-style="normal" font-weight="normal" text-decoration="none" x="135.226806640625" y="211.5">Site</text></g></g><g transform="translate(-6,-165) scale(1,1)"><path fill="none" stroke="#000000" d="M 240 288 L 240 208 M 240 208 A 8 8 0 0 0 232 200 L 181 200" stroke-miterlimit="10"/></g><g transform="translate(-6,-165) scale(1,1)"><path fill="#000000" stroke="none" d="M 191.16267485762415 195.790482243984 L 181 200 L 191.16267485762415 204.209517756016"/></g><g transform="translate(-6,-165) scale(1,1)"><path fill="none" stroke="#000000" d="M 191.16267485762415 195.790482243984 L 181 200 L 191.16267485762415 204.209517756016 L 191.16267485762415 195.790482243984" stroke-miterlimit="10"/></g><g transform="translate(-6,-165) scale(1,1)"><g><path fill="none" stroke="none"/><text fill="#000000" stroke="none" font-family="Arial" font-size="13px" font-style="normal" font-weight="normal" text-decoration="none" x="207.5" y="196.5">15: renders</text></g></g><g transform="translate(-6,-165) scale(1,1)"><path fill="none" stroke="#000000" d="M 112 200 L 64 200 M 64 200 A 8 8 0 0 0 56 208 L 56 288" stroke-miterlimit="10"/></g><g transform="translate(-6,-165) scale(1,1)"><path fill="#000000" stroke="none" d="M 51.790482243984016 277.83732514237585 L 56 288 L 60.20951775601599 277.83732514237585"/></g><g transform="translate(-6,-165) scale(1,1)"><path fill="none" stroke="#000000" d="M 51.790482243984016 277.83732514237585 L 56 288 L 60.20951775601599 277.83732514237585 L 51.790482243984016 277.83732514237585" stroke-miterlimit="10"/></g><g transform="translate(-6,-165) scale(1,1)"><g><path fill="none" stroke="none"/><text fill="#000000" stroke="none" font-family="Arial" font-size="13px" font-style="normal" font-weight="normal" text-decoration="none" x="15.5" y="196.5">16: interaction</text></g></g></g></svg>